# xmcd
#
# Track frame offsets:
#	150
#	10203
#	23187
#	37407
#	47897
#	60485
#	71421
#	84067
#	98106
#	106106
#	117433
#	129405
#	140181
#	148718
#
# Disc length: 2127 seconds
# Revision: 0
# Processed by: cddbd v1.5.2PL0 Copyright (c) Steve Scherf et al.
# Submitted via: dBpowerAMP V12.0
#
DISCID=c2084d0e
DTITLE=Ricky Skaggs - Gold Collection
DYEAR=1900
DGENRE=Bluegrass
TTITLE0=Leaning on Jesus
TTITLE1=Shouting to the Hills of Glory
TTITLE2=Let Me Walk, Lord
TTITLE3=Wing of Angels
TTITLE4=Working on a Building
TTITLE5=You're Going Away
TTITLE6=Rock Bottom
TTITLE7=Antehr Song, Another Drink
TTITLE8=Let's Keep Old Glory Waving
TTITLE9=Keep My Love With You
TTITLE10=Are You Prod of America?
TTITLE11=Hulla-Gull
TTITLE12=A Few More Seasons to Come
TTITLE13=In Heaven We'll Never Grow Old
EXTD=
EXTT0=
EXTT1=
EXTT2=
EXTT3=
EXTT4=
EXTT5=
EXTT6=
EXTT7=
EXTT8=
EXTT9=
EXTT10=
EXTT11=
EXTT12=
EXTT13=
PLAYORDER=
